<?xml version="1.0" encoding="UTF-8" standalone="no"?>
<svg width="66px" height="66px" viewBox="0 0 66 66" version="1.1" xmlns="http://www.w3.org/2000/svg" xmlns:xlink="http://www.w3.org/1999/xlink">
    <!-- Generator: Sketch 39.1 (31720) - http://www.bohemiancoding.com/sketch -->
    <title>bootstrap_logo</title>
    <desc>Created with Sketch.</desc>
    <defs></defs>
    <g id="Welcome" stroke="none" stroke-width="1" fill="none" fill-rule="evenodd">
        <g id="Desktop" transform="translate(-895.000000, -933.000000)">
            <g id="skills" transform="translate(180.000000, 663.000000)">
                <g id="bootstrap_logo" transform="translate(715.000000, 270.000000)">
                    <g id="Group">
                        <path d="M0,57.4899252 C0,62.1904269 3.81009023,66 8.51007473,66 L57.4899252,66 C62.1904269,66 66,62.1899097 66,57.4899252 L66,8.51007473 C66,3.80957319 62.1899097,0 57.4899252,0 L8.51007473,0 C3.80957319,0 0,3.81009023 0,8.51007473 L0,57.4899252 L0,57.4899252 Z" id="Shape" fill="#563D7C"></path>
                        <path d="M27.3687467,29.1941964 L27.3687467,19.8475906 L35.5959986,19.8475906 C36.3795504,19.8475906 37.1351068,19.9128856 37.8626905,20.0434776 C38.5902742,20.1740695 39.2338962,20.4072659 39.7935759,20.7430738 C40.3532559,21.0788817 40.800993,21.5452745 41.1368007,22.1422663 C41.4726087,22.7392581 41.6405101,23.5041423 41.6405101,24.436942 C41.6405101,26.1159814 41.1368059,27.3286027 40.1293821,28.0748426 C39.1219586,28.8210821 37.8347145,29.1941964 36.267611,29.1941964 L27.3687467,29.1941964 L27.3687467,29.1941964 L27.3687467,29.1941964 Z M18.5818179,13.0195312 L18.5818179,52.9804688 L37.946642,52.9804688 C39.7376172,52.9804688 41.4819266,52.7566001 43.1796219,52.3088564 C44.8773172,51.8611126 46.38843,51.1708511 47.7130054,50.2380514 C49.0375811,49.3052518 50.0916289,48.1019584 50.8751806,46.6281348 C51.6587321,45.1543115 52.0505022,43.4100021 52.0505022,41.3951549 C52.0505022,38.8952517 51.4441916,36.7591726 50.231552,34.9868534 C49.0189123,33.214534 47.1813246,31.9739289 44.7187336,31.2650013 C46.5097089,30.4068257 47.8622482,29.3061386 48.7763917,27.9629071 C49.6905356,26.6196756 50.1476005,24.9406613 50.1476005,22.9258141 C50.1476005,21.0602148 49.8397811,19.4931349 49.2241334,18.2245273 C48.6084857,16.9559198 47.7409951,15.9391834 46.6216353,15.1742877 C45.5022758,14.409392 44.1590645,13.8590484 42.591961,13.5232405 C41.0248575,13.1874327 39.2898763,13.0195312 37.3869648,13.0195312 L18.5818179,13.0195312 L18.5818179,13.0195312 L18.5818179,13.0195312 Z M27.3687467,46.1524094 L27.3687467,35.1827404 L36.9392234,35.1827404 C38.8421346,35.1827404 40.3719033,35.6211495 41.5285747,36.4979812 C42.6852463,37.3748128 43.2635734,38.8392863 43.2635734,40.8914457 C43.2635734,41.9361814 43.086344,42.7943441 42.7318802,43.4659598 C42.3774164,44.1375755 41.9016956,44.6692633 41.3047039,45.0610393 C40.707712,45.452815 40.0174508,45.7326509 39.233899,45.9005546 C38.4503473,46.0684586 37.629496,46.1524094 36.7713202,46.1524094 L27.3687467,46.1524094 L27.3687467,46.1524094 L27.3687467,46.1524094 Z" id="Shape" fill="#FFFFFF"></path>
                    </g>
                </g>
            </g>
        </g>
    </g>
</svg>