<?xml version="1.0" encoding="UTF-8" standalone="no"?>
<svg width="77px" height="77px" viewBox="0 0 77 77" version="1.1" xmlns="http://www.w3.org/2000/svg" xmlns:xlink="http://www.w3.org/1999/xlink">
    <!-- Generator: Sketch 39.1 (31720) - http://www.bohemiancoding.com/sketch -->
    <title>blue</title>
    <desc>Created with Sketch.</desc>
    <defs></defs>
    <g id="Welcome" stroke="none" stroke-width="1" fill="none" fill-rule="evenodd">
        <g id="Tablet-Portrait" transform="translate(-287.000000, -729.000000)">
            <g id="blue" transform="translate(288.000000, 730.000000)">
                <path d="M37.4906792,74.8429314 C58.1452422,74.8429314 74.8890737,58.0990998 74.8890737,37.4445369 C74.8890737,16.7899739 58.1452422,0.0461423744 37.4906792,0.0461423744 C16.8361163,0.0461423744 0.0922847489,16.7899739 0.0922847489,37.4445369 C0.0922847489,58.0990998 16.8361163,74.8429314 37.4906792,74.8429314 Z" id="Oval-1" stroke="#000000" fill="#292F36"></path>
                <g id="Zeiger" transform="translate(22.379052, 13.289004)">
                    <rect id="Rectangle-1" fill="#FFFFFF" x="13.6120005" y="0" width="2.99925434" height="24.1324618" rx="1.49962717"></rect>
                    <rect id="Rectangle-2" fill="#FFFFFF" transform="translate(8.328699, 28.446774) rotate(58.000000) translate(-8.328699, -28.446774) " x="6.82907142" y="19.6105091" width="2.99925434" height="17.6725294" rx="1.49962717"></rect>
                    <path d="M15.1116276,26.7625772 C16.5514584,26.7625772 17.7186718,25.5953638 17.7186718,24.155533 C17.7186718,22.7157023 16.5514584,21.5484889 15.1116276,21.5484889 C13.6717969,21.5484889 12.5045835,22.7157023 12.5045835,24.155533 C12.5045835,25.5953638 13.6717969,26.7625772 15.1116276,26.7625772 Z" id="Oval-3" stroke="#000000" stroke-width="3" fill="#BDC3C7"></path>
                </g>
                <path d="M37.4676081,0.0922847489 C36.626645,0.0922847489 35.9449097,0.769358404 35.9449097,1.61504717 L35.9449097,7.19814635 C35.9449097,8.03914481 36.6207819,8.72090877 37.4676081,8.72090877 C38.3085711,8.72090877 38.9903064,8.04383512 38.9903064,7.19814635 L38.9903064,1.61504717 C38.9903064,0.774048709 38.3144342,0.0922847489 37.4676081,0.0922847489 Z M56.1595728,5.10078162 C55.4312775,4.68030008 54.5023406,4.92579542 54.0794962,5.65818338 L51.2879466,10.4932891 C50.8674474,11.2216151 51.1118879,12.1499762 51.8452608,12.5733892 C52.5735562,12.9938708 53.5024931,12.7483754 53.9253375,12.0159875 L56.7168871,7.18088174 C57.1373863,6.45255571 56.8929458,5.52419468 56.1595728,5.10078162 Z M69.8430408,18.7842495 C69.4225592,18.0559541 68.4953286,17.8040909 67.7629406,18.2269353 L62.9278349,21.0184849 C62.1995089,21.4389841 61.9470201,22.3651886 62.3704332,23.0985615 C62.7909147,23.8268569 63.7181453,24.0787202 64.4505333,23.6558758 L69.285639,20.8643262 C70.013965,20.443827 70.2664538,19.5176225 69.8430408,18.7842495 Z M74.8515376,37.4762143 C74.8515376,36.6352512 74.174464,35.953516 73.3287752,35.953516 L67.745676,35.953516 C66.9046776,35.953516 66.2229136,36.6293882 66.2229136,37.4762143 C66.2229136,38.3171774 66.8999873,38.9989127 67.745676,38.9989127 L73.3287752,38.9989127 C74.1697737,38.9989127 74.8515376,38.3230404 74.8515376,37.4762143 Z M69.8430408,56.1681791 C70.2635223,55.4398837 70.018027,54.5109468 69.285639,54.0881024 L64.4505333,51.2965529 C63.7222073,50.8760536 62.7938462,51.1204942 62.3704332,51.8538671 C61.9499516,52.5821625 62.195447,53.5110994 62.9278349,53.9339438 L67.7629407,56.7254934 C68.4912667,57.1459926 69.4196277,56.901552 69.8430408,56.1681791 Z M56.1595729,69.851647 C56.8878683,69.4311655 57.1397315,68.5039349 56.7168871,67.7715469 L53.9253375,62.9364412 C53.5048383,62.2081152 52.5786338,61.9556264 51.8452609,62.3790394 C51.1169655,62.799521 50.8651022,63.7267516 51.2879466,64.4591396 L54.0794962,69.2942453 C54.4999954,70.0225713 55.4261999,70.2750601 56.1595729,69.851647 Z M37.4676081,74.8601439 C38.3085712,74.8601439 38.9903064,74.1830703 38.9903064,73.3373815 L38.9903064,67.7542823 C38.9903064,66.9132839 38.3144342,66.2315199 37.4676081,66.2315199 C36.626645,66.2315199 35.9449097,66.9085936 35.9449097,67.7542823 L35.9449097,73.3373815 C35.9449097,74.17838 36.620782,74.8601439 37.4676081,74.8601439 Z M18.7756433,69.8516471 C19.5039387,70.2721286 20.4328756,70.0266333 20.85572,69.2942453 L23.6472695,64.4591396 C24.0677688,63.7308135 23.8233282,62.8024525 23.0899553,62.3790395 C22.3616599,61.9585579 21.432723,62.2040533 21.0098786,62.9364412 L18.218329,67.7715469 C17.7978298,68.499873 18.0422704,69.428234 18.7756433,69.8516471 Z M5.09217535,56.1681792 C5.51265689,56.8964745 6.43988752,57.1483378 7.17227548,56.7254934 L12.0073812,53.9339438 C12.7357072,53.5134446 12.988196,52.5872401 12.564783,51.8538671 C12.1443014,51.1255718 11.2170708,50.8737085 10.4846828,51.2965529 L5.64957712,54.0881025 C4.92125108,54.5086017 4.66876229,55.4348062 5.09217535,56.1681792 Z M0.0836784667,37.4762144 C0.0836784667,38.3171775 0.760752121,38.9989127 1.60644089,38.9989127 L7.18954006,38.9989127 C8.03053853,38.9989127 8.71230249,38.3230405 8.71230249,37.4762144 C8.71230249,36.6352513 8.03522883,35.953516 7.18954006,35.953516 L1.60644089,35.953516 C0.765442427,35.953516 0.0836784667,36.6293882 0.0836784667,37.4762144 Z M5.09217532,18.7842496 C4.67169378,19.512545 4.91718913,20.4414819 5.64957708,20.8643262 L10.4846828,23.6558758 C11.2130088,24.0763751 12.1413699,23.8319345 12.5647829,23.0985616 C12.9852645,22.3702662 12.7397691,21.4413293 12.0073812,21.0184849 L7.17227544,18.2269353 C6.44394941,17.8064361 5.51558838,18.0508766 5.09217532,18.7842496 Z M18.7756432,5.10078164 C18.0473478,5.52126318 17.7954846,6.44849381 18.218329,7.18088176 L21.0098786,12.0159875 C21.4303778,12.7443135 22.3565823,12.9968023 23.0899552,12.5733892 C23.8182506,12.1529077 24.0701139,11.2256771 23.6472695,10.4932891 L20.8557199,5.65818341 C20.4352207,4.92985737 19.5090162,4.67736858 18.7756432,5.10078164 Z" id="Rectangle-8" fill="#46CEC5"></path>
            </g>
        </g>
    </g>
</svg>