<?xml version="1.0" encoding="UTF-8" standalone="no"?>
<svg width="57px" height="81px" viewBox="0 0 57 81" version="1.1" xmlns="http://www.w3.org/2000/svg" xmlns:xlink="http://www.w3.org/1999/xlink">
    <!-- Generator: Sketch 39.1 (31720) - http://www.bohemiancoding.com/sketch -->
    <title>css3_logo</title>
    <desc>Created with Sketch.</desc>
    <defs></defs>
    <g id="Welcome" stroke="none" stroke-width="1" fill="none" fill-rule="evenodd">
        <g id="Desktop" transform="translate(-899.000000, -770.000000)">
            <g id="css3_logo" transform="translate(899.000000, 770.000000)">
                <g id="Slice-1">
                    <g id="Page-1">
                        <g id="Layer_1">
                            <path d="M44.5984832,2.99938591 L39.8762819,2.99938591 L44.7870805,8.32812081 L44.7870805,10.8646208 L34.6720671,10.8646208 L34.6720671,7.89488255 L39.5819094,7.89488255 L34.6720671,2.56595638 L34.6720671,0.0258221477 L44.5984832,0.0258221477 L44.5984832,2.99938591 L44.5984832,2.99938591 L44.5984832,2.99938591 Z M32.6671208,2.99938591 L27.9449195,2.99938591 L32.8555268,8.32812081 L32.8555268,10.8646208 L22.7405134,10.8646208 L22.7405134,7.89488255 L27.6509295,7.89488255 L22.7405134,2.56595638 L22.7405134,0.0258221477 L32.6671208,0.0258221477 L32.6671208,2.99938591 L32.6671208,2.99938591 L32.6671208,2.99938591 Z M20.8524362,3.12008054 L15.7568658,3.12008054 L15.7568658,7.77055369 L20.8524362,7.77055369 L20.8524362,10.8646208 L12.1352617,10.8646208 L12.1352617,0.0258221477 L20.8524362,0.0258221477 L20.8524362,3.12008054 L20.8524362,3.12008054 L20.8524362,3.12008054 Z" id="Shape" fill="#FFFFFF"></path>
                            <polygon id="Shape" fill="#1572B6" points="5.1915906 73.8876846 0.0135805369 15.8127181 56.9083792 15.8127181 51.7255872 73.8783121 28.4261678 80.3376745"></polygon>
                            <polygon id="Shape" fill="#33A9DC" points="28.4613624 75.4004799 47.2880034 70.1809631 51.7173624 20.5613154 28.4613624 20.5613154"></polygon>
                            <g id="Group" transform="translate(10.520134, 27.161074)">
                                <polygon id="Shape" fill="#FFFFFF" points="17.9410369 14.4405101 27.3661208 14.4405101 28.0170302 7.14680537 17.9410369 7.14680537 17.9410369 0.023909396 17.9657114 0.023909396 35.8013557 0.023909396 35.630547 1.9349396 33.8799966 21.5628322 17.9410369 21.5628322"></polygon>
                                <polygon id="Shape" fill="#EBEBEB" points="17.9836913 32.938349 17.9525134 32.9471477 10.0199497 30.805057 9.51268792 25.1245671 5.65830201 25.1245671 2.36301342 25.1245671 3.3607047 36.3078523 17.9507919 40.3582953 17.9836913 40.3491141"></polygon>
                                <polygon id="Shape" fill="#FFFFFF" points="26.7607349 21.2613826 25.903057 30.8002752 17.9590168 32.9444698 17.9590168 40.3548523 32.5607718 36.3078523 32.6678859 35.1047315 33.9069664 21.2613826"></polygon>
                                <polygon id="Shape" fill="#EBEBEB" points="17.9657114 0.023909396 17.9657114 4.44772148 17.9657114 7.12920805 17.9657114 7.14680537 0.783845638 7.14680537 0.761083893 7.14680537 0.618201342 5.54583221 0.293607383 1.9349396 0.123372483 0.023909396"></polygon>
                                <polygon id="Shape" fill="#EBEBEB" points="17.9410369 14.4412752 17.9410369 18.8652785 17.9410369 21.5463826 17.9410369 21.5639799 10.1316544 21.5639799 10.1088926 21.5639799 9.96620134 19.963198 9.64141611 16.3523054 9.47118121 14.4412752"></polygon>
                            </g>
                        </g>
                    </g>
                </g>
            </g>
        </g>
    </g>
</svg>