<?xml version="1.0" encoding="UTF-8" standalone="no"?>
<svg width="42px" height="32px" viewBox="0 0 42 32" version="1.1" xmlns="http://www.w3.org/2000/svg" xmlns:xlink="http://www.w3.org/1999/xlink">
    <!-- Generator: Sketch 39.1 (31720) - http://www.bohemiancoding.com/sketch -->
    <title>Group 3</title>
    <desc>Created with Sketch.</desc>
    <defs></defs>
    <g id="Welcome" stroke="none" stroke-width="1" fill="none" fill-rule="evenodd">
        <g id="Tablet-Portrait" transform="translate(-201.000000, -751.000000)">
            <g id="Group-3" transform="translate(201.000000, 751.000000)">
                <path d="M0.680972717,3.17621052 C0.680972717,2.62058919 0.680972717,1.71360502 0.680972717,1.16937487 L0.680972717,1.01811349 C0.680972717,0.465390099 1.13798211,0.0173192622 1.6894408,0.0173192622 L8.1727367,0.0173192622 C8.72969825,0.0173192622 9.18120479,0.473883341 9.18120479,1.01811349 L9.18120479,1.16937487 C9.18120479,1.72209826 9.63652888,2.1701691 10.1797567,2.1701691 L38.716371,2.1701691 C39.2678559,2.1701691 39.7149229,2.62215235 39.7149229,3.17621052 L39.7149229,28.5196803 C39.7149229,29.0753016 39.2765533,29.5257217 38.7108074,29.5257217 L1.68508821,29.5257217 C1.13053053,29.5257217 0.680972717,29.0737384 0.680972717,28.5196803 L0.680972717,3.17621052 Z" id="Rectangle-3" fill="#F39C12"></path>
                <path d="M2.55154837,5.46059905 C2.59576399,4.90497771 3.08138384,4.45455762 3.63107364,4.45455762 L40.4853408,4.45455762 C41.0373305,4.45455762 41.4518248,4.90654088 41.4113945,5.46059905 L39.5620511,30.8040688 C39.5215068,31.3596901 39.0502695,31.8101102 38.4845236,31.8101102 L1.45880444,31.8101102 C0.904246765,31.8101102 0.490657181,31.3581269 0.534748401,30.8040688 L2.55154837,5.46059905 Z" id="Rectangle-3" fill="#F1C40F"></path>
            </g>
        </g>
    </g>
</svg>