<?xml version="1.0" encoding="UTF-8" standalone="no"?>
<svg width="57px" height="80px" viewBox="0 0 57 80" version="1.1" xmlns="http://www.w3.org/2000/svg" xmlns:xlink="http://www.w3.org/1999/xlink">
    <!-- Generator: Sketch 39.1 (31720) - http://www.bohemiancoding.com/sketch -->
    <title>HTML5_logo</title>
    <desc>Created with Sketch.</desc>
    <defs></defs>
    <g id="Welcome" stroke="none" stroke-width="1" fill="none" fill-rule="evenodd">
        <g id="Desktop" transform="translate(-331.000000, -770.000000)">
            <g id="HTML5_logo" transform="translate(331.000000, 770.000000)">
                <g id="HTML5-Logo">
                    <polygon id="Shape" fill="#E44D26" points="5.26842857 73.5745313 0.0991236264 15.721875 56.9008764 15.721875 51.7260907 73.5654688 28.4652363 80"></polygon>
                    <polygon id="Shape" fill="#F16529" points="28.5 75.0817188 47.2959066 69.8821875 51.7181044 20.4521875 28.5 20.4521875"></polygon>
                    <polygon id="Shape" fill="#EBEBEB" points="28.5 41.9089062 19.0903022 41.9089062 18.4404396 34.643125 28.5 34.643125 28.5 27.5476562 28.4754148 27.5476562 10.669022 27.5476562 10.839239 29.45125 12.586978 49.0042187 28.5 49.0042187"></polygon>
                    <polygon id="Shape" fill="#EBEBEB" points="28.5 60.3364063 28.4688379 60.3446875 20.549283 58.2109375 20.0430165 52.5520313 16.1947335 52.5520313 12.904706 52.5520313 13.9009533 63.6928125 28.467272 67.7276563 28.5 67.7185938"></polygon>
                    <polygon id="Shape" fill="#FFFFFF" points="5.38399451 0 8.99770055 0 8.99770055 3.5625 12.3033874 3.5625 12.3033874 0 15.91725 0 15.91725 10.788125 12.303544 10.788125 12.303544 7.175625 8.99785714 7.175625 8.99785714 10.788125 5.3841511 10.788125 5.3841511 0"></polygon>
                    <polygon id="Shape" fill="#FFFFFF" points="20.6693901 3.5775 17.4880385 3.5775 17.4880385 0 27.4661703 0 27.4661703 3.5775 24.2834093 3.5775 24.2834093 10.788125 20.6695467 10.788125 20.6695467 3.5775"></polygon>
                    <polygon id="Shape" fill="#FFFFFF" points="29.0497995 0 32.8179066 0 35.1358022 3.790625 37.4513489 0 41.2208654 0 41.2208654 10.788125 37.6220357 10.788125 37.6220357 5.4409375 35.1358022 9.27671875 35.0736346 9.27671875 32.5856786 5.4409375 32.5856786 10.788125 29.0497995 10.788125 29.0497995 0"></polygon>
                    <polygon id="Shape" fill="#FFFFFF" points="43.0193407 0 46.6341429 0 46.6341429 7.2221875 51.7160687 7.2221875 51.7160687 10.788125 43.0193407 10.788125"></polygon>
                    <polygon id="Shape" fill="#FFFFFF" points="28.4754148 41.9089062 28.4754148 49.0042187 37.2318049 49.0042187 36.4064011 58.2064062 28.4754148 60.3423437 28.4754148 67.7242187 43.0533214 63.6928125 43.1602747 62.4940625 44.831283 43.8142187 45.0047885 41.9089062 43.0885549 41.9089062"></polygon>
                    <polygon id="Shape" fill="#FFFFFF" points="28.4754148 27.5476562 28.4754148 31.9545312 28.4754148 34.6257812 28.4754148 34.643125 45.6289698 34.643125 45.6289698 34.643125 45.6518324 34.643125 45.794489 33.0482812 46.1184808 29.45125 46.2885412 27.5476562"></polygon>
                </g>
            </g>
        </g>
    </g>
</svg>