<?xml version="1.0" encoding="UTF-8" standalone="no"?>
<svg width="58px" height="56px" viewBox="0 0 58 56" version="1.1" xmlns="http://www.w3.org/2000/svg" xmlns:xlink="http://www.w3.org/1999/xlink">
    <!-- Generator: Sketch 39.1 (31720) - http://www.bohemiancoding.com/sketch -->
    <title>jquery</title>
    <desc>Created with Sketch.</desc>
    <defs></defs>
    <g id="Welcome" stroke="none" stroke-width="1" fill="none" fill-rule="evenodd">
        <g id="Desktop" transform="translate(-331.000000, -937.000000)" fill="#21ACE2">
            <g id="jquery" transform="translate(331.000000, 937.000000)">
                <g id="Layer_6">
                    <g id="Group">
                        <g id="Group-3">
                            <path d="M3.67941869,13.1705871 C-1.42758537,20.5508229 -0.79132939,30.1529335 3.10928052,37.9954639 C3.20214135,38.1835857 3.29932658,38.3683891 3.39526001,38.5538791 C3.45637062,38.6705971 3.51406724,38.7909768 3.57768146,38.9063215 C3.61341467,38.9757802 3.65381368,39.0435223 3.69125389,39.1098914 C3.75794071,39.2351915 3.82576553,39.3537403 3.89495595,39.4759509 C4.01615298,39.6906204 4.14053642,39.9040311 4.26730965,40.1174419 C4.33763807,40.2347319 4.40705609,40.352022 4.47954671,40.4691977 C4.62020355,40.6975987 4.7642744,40.9241688 4.91187304,41.1492514 C4.97332506,41.2454865 5.03307007,41.3417215 5.09611529,41.4346382 C5.29947595,41.7399357 5.50738861,42.0446611 5.72178787,42.343665 C5.77368068,42.4150689 5.81134849,42.4622138 5.8456023,42.5100453 C6.03098256,42.7675113 6.22262181,43.0213156 6.41574047,43.2731747 C6.48697929,43.3644893 6.55924231,43.4562616 6.63082253,43.548034 C6.80334338,43.7664796 6.97916443,43.9830944 7.15783048,44.1994803 C7.2247449,44.280153 7.29177312,44.3613978 7.35937034,44.4408118 C7.5990332,44.7244822 7.84370327,45.0073516 8.09406335,45.2847283 C8.38106703,45.5988369 8.6306305,45.8613378 8.88372177,46.1231522 C8.96201619,46.2037105 9.04235902,46.2850698 9.12281564,46.3657425 C9.3187793,46.5635908 9.51781555,46.7578919 9.71890021,46.9533372 C9.80060863,47.0309203 9.88152046,47.1109064 9.96265988,47.1859721 C10.2313418,47.440463 10.502641,47.6898045 10.7794027,47.9330814 C10.8392615,47.9858333 10.8879679,48.0262268 10.9342846,48.0652473 C11.1783856,48.2779714 11.4264697,48.4889792 11.6763746,48.6963252 C11.7782256,48.7788287 11.8812146,48.8607601 11.9837485,48.9425771 C12.1880195,49.1071266 12.394339,49.2690441 12.6023654,49.4284442 C12.7121825,49.5127786 12.8223409,49.5972275 12.9330683,49.6816764 C13.1623754,49.8504597 13.3933895,50.018442 13.6270209,50.1817326 C13.7122571,50.2437534 13.7945346,50.3032566 13.8801122,50.3623022 C14.1707575,50.565071 14.3968781,50.7134859 14.6229988,50.8605276 C14.720184,50.9255235 14.8168003,50.9925791 14.9148959,51.0558585 C15.261986,51.2762494 15.6140833,51.4945807 15.9700498,51.706275 C16.0670074,51.7614299 16.1644202,51.8161271 16.2616055,51.8712821 C16.5232318,52.0232443 16.7864512,52.1722313 17.0536537,52.3180143 C17.1977245,52.3961696 17.3461198,52.4699765 17.4914424,52.54447 C17.6802367,52.6443668 17.8672101,52.7448358 18.058508,52.8403843 C18.2664206,52.9415399 18.3441461,52.9782717 18.4216439,53.0172921 C18.7184344,53.1599855 19.0177285,53.2995893 19.3195261,53.435417 C19.3840508,53.4639099 19.4460718,53.4925172 19.5099136,53.520438 C19.8558657,53.6724002 20.2047766,53.8194419 20.5577843,53.9591601 C20.6423377,53.9932601 20.7278016,54.0261013 20.8130378,54.0603157 C21.1391887,54.1863024 21.469664,54.310916 21.8012773,54.4283205 C22.2899346,54.5995068 22.6577363,54.7179412 23.0282692,54.834087 C23.1164642,54.8601769 23.2053421,54.8887842 23.2942199,54.9147597 C23.6712394,55.0288458 24.0433655,55.1647878 24.4327892,55.2373361 C49.1297861,59.7657634 56.3037401,40.3136882 56.3037401,40.3136882 C50.2789388,48.2065675 39.5837841,50.288953 29.4506878,47.9706142 C29.0664989,47.8837623 28.6943728,47.7633826 28.3197431,47.6516996 C28.2244925,47.6232067 28.1312903,47.5947137 28.037519,47.5655343 C27.6718795,47.4525925 27.3093126,47.3341581 26.9486803,47.2094301 C26.4760688,47.0412189 26.1569735,46.9208393 25.8387886,46.7972556 C25.7490004,46.7613247 25.6592122,46.7272248 25.5697653,46.6911795 C25.2211958,46.5528345 24.8746747,46.4081957 24.533047,46.2574923 C24.4623772,46.2276262 24.3951214,46.1960437 24.3260448,46.1649189 C24.0320993,46.0314943 23.7413402,45.8969254 23.4510363,45.756635 C23.3677347,45.7157837 23.2837503,45.6760767 23.1986279,45.6345389 C22.971483,45.523428 22.7462727,45.4048791 22.5223143,45.2888478 C22.3720982,45.2094338 22.2193786,45.133796 22.0709833,45.051178 C21.7969529,44.9035641 21.5279296,44.7502288 21.2603857,44.5939183 C21.1693457,44.5424251 21.0777367,44.4933349 20.9863552,44.440583 C20.6302749,44.2296897 20.278519,44.011244 19.9305185,43.7897088 C19.8345851,43.7283746 19.7404725,43.6625778 19.6457908,43.5992983 C19.3933824,43.4354355 19.1418843,43.2691696 18.8947106,43.0966102 C18.8126608,43.0420274 18.7331146,42.9812654 18.6525442,42.925996 C18.4133365,42.7566405 18.1770876,42.5841955 17.9422044,42.4098052 C17.8360289,42.3309633 17.7308777,42.2490319 17.6275473,42.1701901 C17.4124652,42.0046108 17.1984073,41.838345 16.9867393,41.6663576 C16.8913749,41.5900332 16.7954414,41.5131367 16.7009874,41.4361258 C16.4316227,41.2134462 16.165672,40.9900801 15.902794,40.7604204 C15.5315783,40.4353266 15.2520854,40.1777461 14.9765755,39.9190214 C14.8963465,39.8421248 14.8186211,39.7676313 14.7402128,39.6900482 C14.5357142,39.4952894 14.3348571,39.2978988 14.1374141,39.0962743 C14.0584368,39.0168603 13.9787768,38.9380185 13.9010514,38.8592911 C13.6496671,38.5998797 13.4030625,38.3380654 13.1612374,38.0719027 C12.8689989,37.7516149 12.619094,37.4643972 12.374424,37.1739755 C12.3080785,37.0945615 12.2436677,37.017665 12.1778913,36.9393953 C11.9955837,36.7184322 11.8147554,36.4943796 11.6382516,36.2680383 C11.5715647,36.1873656 11.5053331,36.1034889 11.4397843,36.0204132 C11.2275472,35.7430364 11.0196346,35.4670328 10.8159325,35.1851933 C5.18977272,27.4700228 3.16857034,16.8271772 7.66492342,8.08683403" id="Shape"></path>
                            <path d="M19.5317355,6.95249582 C15.8385061,12.2969189 16.0391336,19.449898 18.9199527,25.1021361 C19.4031428,26.0496112 19.9461911,26.9685933 20.5536496,27.8440923 C21.1068261,28.6414361 21.7199745,29.5901699 22.454205,30.2304021 C22.7208358,30.5251722 22.9988465,30.8130764 23.2830024,31.0954881 C23.3549233,31.1699816 23.4283236,31.2401268 23.5017239,31.3132471 C23.777231,31.5813551 24.0579729,31.8462591 24.3480463,32.103153 C24.3599951,32.1131084 24.3705784,32.1247801 24.3826411,32.1329046 C24.3857137,32.1365664 24.3887863,32.1379395 24.390607,32.1416013 C24.7115199,32.4240129 25.0427885,32.6963548 25.3794057,32.9637762 C25.4540577,33.0208764 25.5281408,33.0810663 25.6037033,33.1399974 C25.9408894,33.3999809 26.2850173,33.6563027 26.6379077,33.8995795 C26.6483772,33.9069029 26.6573673,33.9144553 26.6678368,33.9231519 C26.8233999,34.0304867 26.9822631,34.1315278 27.139647,34.2353152 C27.2155509,34.2849775 27.2874718,34.3377295 27.363717,34.3841878 C27.6154402,34.5462198 27.8706911,34.7044756 28.1301526,34.8564378 C28.1667958,34.8794381 28.2029839,34.8979756 28.2384892,34.919145 C28.462104,35.0487935 28.6889052,35.1766111 28.9163892,35.3000804 C28.995707,35.3453944 29.0765042,35.3844148 29.1574152,35.4266392 C29.3144577,35.5092572 29.4715002,35.5929051 29.6316152,35.6735778 C29.6547164,35.6847919 29.6797522,35.6958915 29.7028534,35.7058469 C30.0283182,35.8670778 30.3569694,36.0223585 30.6919934,36.1687136 C30.7633453,36.2002961 30.8373146,36.228789 30.9104873,36.2592272 C31.1780285,36.3734277 31.4488698,36.4852252 31.720394,36.5900425 C31.8357861,36.6340978 31.95243,36.6756357 32.067822,36.7185467 C32.3143104,36.8104334 32.5625058,36.8946535 32.8120668,36.9791023 C32.9249553,37.0150331 33.0356817,37.0523371 33.148684,37.0870092 C33.5037365,37.1974335 33.8545785,37.3376095 34.2247663,37.3996302 C53.2929095,40.5766469 57.6954475,25.8136578 57.6954475,25.8136578 C53.7267109,31.5593847 46.0418714,34.3027141 37.8411815,32.1619697 C37.4771388,32.065849 37.1182171,31.9609173 36.7616851,31.8479755 C36.6524382,31.8145622 36.5451258,31.7785169 36.4370169,31.7424717 C36.1833591,31.6599681 35.9312946,31.5719719 35.6813922,31.4807717 C35.5669105,31.4391194 35.4526564,31.3970094 35.3404507,31.3535263 C35.066423,31.2474503 34.7958092,31.1381702 34.5273576,31.0233976 C34.4541849,30.9918151 34.3798742,30.9637799 34.3082947,30.9303665 C33.9716776,30.7833248 33.6402952,30.6275864 33.3132372,30.4662411 C33.1450424,30.3829365 32.980034,30.2956269 32.8146842,30.2106059 C32.7189793,30.1603714 32.6227055,30.110709 32.526773,30.0610467 C32.3141966,29.9449009 32.1034411,29.8252078 31.8951891,29.7029972 C31.8461418,29.6745043 31.7945909,29.6478423 31.7446332,29.6172897 C31.4861959,29.4653275 31.2318553,29.309017 30.9800184,29.1482437 C30.9022937,29.0980092 30.8276417,29.0439986 30.749917,28.9930775 C30.5836568,28.8845985 30.4176242,28.7747463 30.2546642,28.6636354 C29.9032532,28.420473 29.5610599,28.1648378 29.2241014,27.9054265 C29.1463768,27.8439779 29.0683107,27.7837881 28.9920654,27.7223395 C25.4021654,24.8723619 22.5575344,20.9775299 21.2048069,16.5620443 C19.7871003,11.9815516 20.0923089,6.84127048 22.5485443,2.66906171" id="Shape"></path>
                            <path d="M32.8642336,2.30689279 C30.6871252,5.5285369 30.4732949,9.52955936 31.9839904,13.0880835 C33.5769632,16.8650533 36.8414309,19.8279726 40.6519112,21.2321352 C40.8089553,21.2910664 40.9656579,21.3438183 41.1252056,21.397829 C41.1945098,21.4195705 41.2633588,21.443143 41.3336872,21.4636258 C41.5581009,21.5349153 41.781149,21.6175333 42.0131872,21.6614742 C52.5419662,23.7072422 55.397778,16.2283683 56.1580761,15.1275579 C53.6560685,18.7493615 49.4524091,19.6187957 44.2939675,18.3604161 C43.8863358,18.2598327 43.438305,18.1122188 43.0458087,17.9719284 C42.5422436,17.7919311 42.0461892,17.5859582 41.5636771,17.3533233 C40.6479282,16.910825 39.7749682,16.3735792 38.9650534,15.759208 C34.3495516,12.2373012 31.481677,5.5191537 34.4937363,0.0474851438" id="Shape"></path>
                        </g>
                    </g>
                </g>
            </g>
        </g>
    </g>
</svg>