<?xml version="1.0" encoding="UTF-8" standalone="no"?>
<svg width="27px" height="44px" viewBox="0 0 27 44" version="1.1" xmlns="http://www.w3.org/2000/svg" xmlns:xlink="http://www.w3.org/1999/xlink">
    <!-- Generator: Sketch 39.1 (31720) - http://www.bohemiancoding.com/sketch -->
    <title>Icon</title>
    <desc>Created with Sketch.</desc>
    <defs></defs>
    <g id="Welcome" stroke="none" stroke-width="1" fill="none" fill-rule="evenodd" stroke-linecap="round" stroke-linejoin="round">
        <g id="Tablet-Portrait" transform="translate(-99.000000, -744.000000)" stroke-width="3">
            <g id="Icon" transform="translate(101.000000, 746.000000)">
                <path d="M17.25,16.4725207 C17.25,19.2020174 15.0436429,21.4142769 12.3214286,21.4142769 L10.6785714,21.4142769 C7.95635714,21.4142769 5.75,19.2020174 5.75,16.4725207 L5.75,4.94175621 C5.75,2.21225953 7.95635714,0 10.6785714,0 L12.3214286,0 C15.0436429,0 17.25,2.21225953 17.25,4.94175621 L17.25,16.4725207 L17.25,16.4725207 Z" id="Stroke-455" stroke="#43484D" fill="#D8D8D8"></path>
                <path d="M23,17.2961467 C23,22.7543165 17.8512857,27.1796592 11.5,27.1796592 C5.14871429,27.1796592 0,22.7543165 0,17.2961467" id="Stroke-456" stroke="#969A9F"></path>
                <path d="M11.5,30.3094381 L11.5,36.8984464" id="Stroke-457" stroke="#969A9F"></path>
                <path d="M3.28571429,40 L19.7142857,40" id="Stroke-458" stroke="#969A9F"></path>
            </g>
        </g>
    </g>
</svg>