<?xml version="1.0" encoding="UTF-8" standalone="no"?>
<svg width="66px" height="66px" viewBox="0 0 66 66" version="1.1" xmlns="http://www.w3.org/2000/svg" xmlns:xlink="http://www.w3.org/1999/xlink">
    <!-- Generator: Sketch 39.1 (31720) - http://www.bohemiancoding.com/sketch -->
    <title>phone</title>
    <desc>Created with Sketch.</desc>
    <defs></defs>
    <g id="Welcome" stroke="none" stroke-width="1" fill="none" fill-rule="evenodd">
        <g id="Desktop" transform="translate(-327.000000, -1158.000000)" fill="#FFFFFF">
            <g id="skills" transform="translate(180.000000, 663.000000)">
                <g id="creative-skills" transform="translate(18.000000, 408.000000)">
                    <path d="M172.943156,130.938834 C159.366253,144.517937 144.143753,148.208795 141.547759,146.958465 L134.900841,139.319349 C134.903041,139.312015 134.905241,139.304682 134.908174,139.297349 L144.475953,131.718365 L147.049214,135.58669 C147.099814,135.662957 147.15408,135.737023 147.21128,135.807423 C148.081745,136.883221 149.365075,137.518286 150.824405,137.594552 C152.247069,137.670819 156.569326,137.896685 168.235167,126.228644 C171.120094,123.342984 179.899541,114.56207 179.598141,108.817883 C179.521141,107.357086 178.88681,106.073756 177.811745,105.202558 C177.740612,105.144625 177.667279,105.091091 177.591012,105.040491 L173.721954,102.465764 L181.300204,92.8987184 C181.308271,92.8957851 181.316338,92.8928518 181.325137,92.8899184 L188.959854,99.5383037 C190.210184,102.135765 186.520793,117.357531 172.943156,130.938834 M193.156711,95.4228461 C193.109045,95.3751796 193.059178,95.3289797 193.008578,95.2849798 L185.127462,88.4217284 C184.043598,87.390664 182.513135,86.8817318 180.909338,87.0232648 C179.479342,87.1479312 178.096278,87.7837298 177.114347,88.7663943 C177.035147,88.8463274 176.960347,88.9299272 176.890681,89.0179271 L169.148898,98.7910387 C167.127836,100.963167 167.174036,104.376093 169.286764,106.491755 C169.424631,106.629621 169.575697,106.752821 169.73703,106.860621 L173.695554,109.495482 C173.380955,110.867545 171.31516,114.849536 164.087442,122.079454 C156.858992,129.309371 152.876267,131.3759 151.504204,131.691232 L148.87081,127.732708 C148.76301,127.570641 148.63981,127.419575 148.501944,127.282442 C146.386282,125.167513 142.973356,125.121313 140.801961,127.143842 L131.029583,134.884892 C130.940116,134.956025 130.855783,135.031558 130.775117,135.112225 C128.543588,137.348153 128.399855,140.986945 130.435584,143.12534 L137.295902,151.007923 C137.339902,151.059256 137.386102,151.109122 137.433768,151.156789 C138.788965,152.511986 140.821761,152.999651 143.048156,152.999651 C147.069014,152.999651 151.71907,151.406855 154.136131,150.456457 C158.808188,148.617995 168.0027,144.176938 177.09088,135.087291 C183.826532,128.350173 189.283986,120.196258 192.457113,112.128142 C193.934043,108.372751 196.959769,99.2266377 193.156711,95.4228461" id="phone"></path>
                </g>
            </g>
        </g>
    </g>
</svg>